<svg width="21" height="21" viewBox="0 0 21 21" fill="none" xmlns="http://www.w3.org/2000/svg">
<path d="M7.68006 5.58184V17.7461M12.8001 2.71464V14.8789M2.56006 7.33288C2.56006 6.02984 2.56006 5.37875 2.89542 4.99902C3.01403 4.86334 3.15825 4.75582 3.31953 4.68158C4.52785 4.12435 6.11163 5.59123 7.38993 5.546C7.55889 5.53975 7.72585 5.51642 7.89083 5.47603C9.75451 5.0195 10.9219 2.84776 12.8385 2.58323C13.9367 2.42963 15.1425 3.09352 16.1699 3.44851C17.0147 3.74035 17.4371 3.88627 17.6786 4.23358C17.9201 4.58088 17.9201 5.04339 17.9201 5.96499V13.1518C17.9201 14.454 17.9201 15.1059 17.5847 15.4856C17.4669 15.6196 17.3225 15.7274 17.1606 15.8022C15.9523 16.3594 14.3685 14.8934 13.0902 14.9386C12.9214 14.9451 12.7536 14.9683 12.5893 15.0078C10.7256 15.4643 9.55825 17.636 7.64166 17.9014C6.54854 18.0533 3.50555 17.2614 2.80155 16.2502C2.56006 15.9029 2.56006 15.4421 2.56006 14.5188V7.33288Z" stroke="white" stroke-width="0.96" stroke-linecap="round" stroke-linejoin="round"/>
</svg>
